# xmcd CD database file
#
# Track frame offsets:
#	150
#	38400
#	77025
#	90675
#	121575
#	142275
#
# Disc length: 3633 seconds
#
# Revision: 3
# Processed by: cddbd v1.5.2PL0 Copyright (c) Steve Scherf et al.
# Submitted via: CDex 1.51
#
DISCID=430e2f06
DTITLE=VPO - Boulez - Urmana - Schade - Mahler Das Lied von der Erde
DYEAR=1999
DGENRE=Symphonic
TTITLE0=Das Lied von der Erde -I- Das Trinklied vom Jammer der Erde
TTITLE1=Das Lied von der Erde -II- Der Einsame im Herbst
TTITLE2=Das Lied von der Erde -III- Von der Jugend
TTITLE3=Das Lied von der Erde -IV- Von der Schonheit
TTITLE4=Das Lied von der Erde -V- Der Trunkene im Fruhling
TTITLE5=Das Lied von der Erde -VI- Der Abschied
EXTD=YEAR: 1999
EXTT0=
EXTT1=
EXTT2=
EXTT3=
EXTT4=
EXTT5=
PLAYORDER=
